<svg width="362" height="40" viewBox="0 0 362 40" fill="none" xmlns="http://www.w3.org/2000/svg">
<path d="M0 4.54126H11.8042V16.3454H0V4.54126Z" fill="#FE83D6"/>
<rect x="11.8042" y="4.54126" width="11.8042" height="11.8042" fill="#FF9EC1"/>
<rect x="11.8042" y="16.3455" width="11.8042" height="11.8042" fill="white"/>
<rect x="11.8042" y="28.1495" width="11.8042" height="11.8042" fill="#9170EE"/>
<rect x="23.6083" y="28.1495" width="11.8042" height="11.8042" fill="#C077F7"/>
<path fill-rule="evenodd" clip-rule="evenodd" d="M23.6085 16.3455H23.6083V28.1496H35.4125V16.3455H35.4123V22.2474L23.6085 16.3455Z" fill="#DE79F6"/>
<path fill-rule="evenodd" clip-rule="evenodd" d="M0 39.9537H11.8042V28.1495L0 34.0516V39.9537Z" fill="#806BE5"/>
<path fill-rule="evenodd" clip-rule="evenodd" d="M11.8042 16.3455H0V22.2474L11.8042 28.1495H0V28.1496H11.8042V28.1495V16.3455Z" fill="#DE79F6"/>
<path fill-rule="evenodd" clip-rule="evenodd" d="M35.4125 4.54126H23.6083V16.3453L35.4123 10.4433V16.3454L35.4125 16.3454V4.54126Z" fill="#FFC0AE"/>
<path d="M59.139 38.9032C62.343 38.9032 64.923 38.1106 66.8791 36.5255C68.8353 34.9403 69.8133 32.8662 69.8133 30.303C69.8133 28.3131 69.2063 26.6437 67.9921 25.2946C66.778 23.9119 65.0242 22.8832 62.7308 22.2087L58.3296 20.8934C56.3397 20.32 55.3448 19.4937 55.3448 18.4145C55.3448 17.7062 55.6146 17.1498 56.1542 16.7451C56.7276 16.3403 57.5033 16.138 58.4813 16.138C59.8304 16.138 61.0277 16.4921 62.0732 17.2004C63.1524 17.8749 63.8944 18.7855 64.2991 19.9322L69.9145 17.3015C69.0714 15.0082 67.6211 13.2375 65.5638 11.9897C63.5403 10.7081 61.1794 10.0673 58.4813 10.0673C56.424 10.0673 54.6028 10.4383 53.0177 11.1802C51.4326 11.8885 50.2015 12.8834 49.3247 14.165C48.4478 15.4466 48.0093 16.9474 48.0093 18.6674C48.0093 20.6236 48.6164 22.3267 49.8306 23.777C51.0447 25.1935 52.7816 26.2221 55.0413 26.8629L59.7461 28.1782C61.5673 28.6841 62.4779 29.4936 62.4779 30.6065C62.4779 32.2591 61.3649 33.0854 59.139 33.0854C57.655 33.0854 56.306 32.6638 55.0918 31.8207C53.8777 30.9775 52.9165 29.8139 52.2083 28.33L46.6434 30.9606C47.4529 33.3889 48.9705 35.3282 51.1965 36.7784C53.4561 38.1949 56.1036 38.9032 59.139 38.9032Z" fill="black"/>
<path d="M87.6536 38.9032C90.4866 38.9032 92.9654 38.2961 95.0902 37.0819C97.2149 35.8341 98.6989 34.1984 99.542 32.1748L93.4713 29.2912C92.9317 30.2355 92.1729 30.9775 91.1948 31.5171C90.2505 32.0567 89.1038 32.3266 87.7547 32.3266C85.8998 32.3266 84.3821 31.8038 83.2017 30.7583C82.0213 29.7128 81.3299 28.33 81.1275 26.61H100.453C100.588 26.239 100.672 25.8005 100.706 25.2946C100.773 24.755 100.807 24.2154 100.807 23.6758C100.807 21.1126 100.267 18.8192 99.1879 16.7956C98.1424 14.7383 96.6079 13.1026 94.5843 11.8885C92.5607 10.6743 90.0818 10.0673 87.1477 10.0673C84.517 10.0673 82.1562 10.6912 80.0652 11.9391C77.9741 13.1869 76.3047 14.8901 75.0568 17.0486C73.8427 19.2071 73.2356 21.6691 73.2356 24.4346C73.2356 27.099 73.8258 29.5273 75.0062 31.7195C76.1867 33.9117 77.8561 35.6654 80.0146 36.9808C82.1731 38.2624 84.7194 38.9032 87.6536 38.9032ZM87.1477 16.138C88.6991 16.138 89.9807 16.5933 90.9925 17.5039C92.0042 18.4145 92.5944 19.5949 92.7631 21.0451H81.2793C81.6503 19.46 82.3417 18.2459 83.3535 17.4027C84.399 16.5596 85.6637 16.138 87.1477 16.138Z" fill="black"/>
<path d="M105.275 38.2961H112.864V22.1581C112.864 20.573 113.285 19.3082 114.128 18.3639C115.005 17.3859 116.186 16.8968 117.67 16.8968C119.154 16.8968 120.317 17.3859 121.16 18.3639C122.037 19.3082 122.476 20.573 122.476 22.1581V38.2961H130.064V22.1581C130.064 20.573 130.486 19.3082 131.329 18.3639C132.206 17.3859 133.386 16.8968 134.87 16.8968C136.354 16.8968 137.517 17.3859 138.361 18.3639C139.238 19.3082 139.676 20.573 139.676 22.1581V38.2961H147.264V20.5393C147.264 18.4482 146.826 16.627 145.949 15.0756C145.072 13.4905 143.858 12.2595 142.307 11.3826C140.789 10.5057 139.035 10.0673 137.045 10.0673C135.258 10.0673 133.622 10.4214 132.138 11.1296C130.688 11.8042 129.474 12.8665 128.496 14.3168C127.72 13.0014 126.573 11.9728 125.056 11.2308C123.572 10.4551 121.919 10.0673 120.098 10.0673C118.344 10.0673 116.793 10.4045 115.444 11.0791C114.095 11.7198 113.066 12.7148 112.358 14.0638V10.6743H105.275V38.2961Z" fill="black"/>
<path d="M152.258 8.19546H159.846V0.60707H152.258V8.19546ZM152.258 38.2961H159.846V10.6743H152.258V38.2961Z" fill="black"/>
<path d="M165.399 38.2961H172.988V22.1581C172.988 20.573 173.46 19.3082 174.404 18.3639C175.349 17.3859 176.563 16.8968 178.047 16.8968C179.531 16.8968 180.745 17.3859 181.689 18.3639C182.633 19.3082 183.106 20.573 183.106 22.1581V38.2961H190.694V20.5393C190.694 18.4482 190.256 16.627 189.379 15.0756C188.502 13.4905 187.271 12.2595 185.686 11.3826C184.134 10.5057 182.313 10.0673 180.222 10.0673C178.468 10.0673 176.917 10.4045 175.568 11.0791C174.219 11.7198 173.19 12.7148 172.482 14.0638V10.6743H165.399V38.2961Z" fill="black"/>
<path d="M204.233 38.9032C207.673 38.9032 210.439 37.8408 212.53 35.716V38.2961H219.613V20.0839C219.613 18.0941 219.107 16.3572 218.095 14.8732C217.117 13.3556 215.734 12.1752 213.947 11.332C212.159 10.4888 210.102 10.0673 207.775 10.0673C204.84 10.0673 202.26 10.7418 200.035 12.0908C197.842 13.4399 196.341 15.2611 195.532 17.5545L201.603 20.4381C202.075 19.2239 202.817 18.2459 203.829 17.5039C204.874 16.7619 206.071 16.3909 207.421 16.3909C208.837 16.3909 209.95 16.7451 210.759 17.4533C211.603 18.1616 212.024 19.0384 212.024 20.0839V20.8428L204.385 22.0569C201.08 22.5965 198.618 23.6252 196.999 25.1429C195.38 26.6606 194.571 28.5829 194.571 30.9101C194.571 33.4058 195.431 35.3619 197.151 36.7784C198.905 38.1949 201.266 38.9032 204.233 38.9032ZM202.412 30.6571C202.412 29.7465 202.699 29.0551 203.272 28.5829C203.846 28.0771 204.672 27.7229 205.751 27.5206L212.024 26.4076V27.2676C212.024 28.9539 211.451 30.3873 210.304 31.5677C209.157 32.7481 207.64 33.3383 205.751 33.3383C204.807 33.3383 204.014 33.1023 203.373 32.6301C202.733 32.1579 202.412 31.5003 202.412 30.6571Z" fill="black"/>
<path d="M225.178 38.2961H232.766V23.4228C232.766 21.3655 233.339 19.7804 234.486 18.6674C235.633 17.5208 237.134 16.9474 238.989 16.9474H241.366V10.3708H239.747C238.061 10.3708 236.56 10.6912 235.245 11.332C233.963 11.9391 232.969 13.1026 232.26 14.8227V10.6743H225.178V38.2961Z" fill="black"/>
<path d="M257.694 38.9032C259.38 38.9032 260.948 38.6334 262.398 38.0937C263.882 37.5204 265.113 36.711 266.091 35.6654V38.2961H273.174V0H265.586V13.0014C263.629 11.0453 260.982 10.0673 257.643 10.0673C255.012 10.0673 252.635 10.7081 250.51 11.9897C248.385 13.2713 246.699 15.0082 245.451 17.2004C244.203 19.3588 243.579 21.7871 243.579 24.4852C243.579 27.1496 244.186 29.5779 245.4 31.7701C246.648 33.9623 248.335 35.6992 250.459 36.9808C252.584 38.2624 254.996 38.9032 257.694 38.9032ZM258.604 32.0736C256.513 32.0736 254.793 31.3654 253.444 29.9489C252.095 28.5324 251.421 26.7111 251.421 24.4852C251.421 22.293 252.095 20.4887 253.444 19.0722C254.793 17.6219 256.513 16.8968 258.604 16.8968C260.662 16.8968 262.331 17.6051 263.613 19.0216C264.928 20.4381 265.586 22.2593 265.586 24.4852C265.586 26.7449 264.928 28.5829 263.613 29.9994C262.331 31.3822 260.662 32.0736 258.604 32.0736Z" fill="black"/>
<path d="M292.036 38.9032C294.869 38.9032 297.348 38.2961 299.473 37.0819C301.598 35.8341 303.082 34.1984 303.925 32.1748L297.854 29.2912C297.314 30.2355 296.556 30.9775 295.577 31.5171C294.633 32.0567 293.486 32.3266 292.137 32.3266C290.282 32.3266 288.765 31.8038 287.584 30.7583C286.404 29.7128 285.713 28.33 285.51 26.61H304.835C304.97 26.239 305.055 25.8005 305.088 25.2946C305.156 24.755 305.189 24.2154 305.189 23.6758C305.189 21.1126 304.65 18.8192 303.571 16.7956C302.525 14.7383 300.991 13.1026 298.967 11.8885C296.943 10.6743 294.465 10.0673 291.53 10.0673C288.9 10.0673 286.539 10.6912 284.448 11.9391C282.357 13.1869 280.687 14.8901 279.44 17.0486C278.225 19.2071 277.618 21.6691 277.618 24.4346C277.618 27.099 278.209 29.5273 279.389 31.7195C280.569 33.9117 282.239 35.6654 284.397 36.9808C286.556 38.2624 289.102 38.9032 292.036 38.9032ZM291.53 16.138C293.082 16.138 294.363 16.5933 295.375 17.5039C296.387 18.4145 296.977 19.5949 297.146 21.0451H285.662C286.033 19.46 286.724 18.2459 287.736 17.4027C288.782 16.5596 290.046 16.138 291.53 16.138Z" fill="black"/>
<path d="M320.484 38.9032C323.688 38.9032 326.268 38.1106 328.224 36.5255C330.18 34.9403 331.158 32.8662 331.158 30.303C331.158 28.3131 330.551 26.6437 329.337 25.2946C328.123 23.9119 326.369 22.8832 324.076 22.2087L319.675 20.8934C317.685 20.32 316.69 19.4937 316.69 18.4145C316.69 17.7062 316.96 17.1498 317.499 16.7451C318.073 16.3403 318.848 16.138 319.826 16.138C321.175 16.138 322.373 16.4921 323.418 17.2004C324.497 17.8749 325.239 18.7855 325.644 19.9322L331.26 17.3015C330.416 15.0082 328.966 13.2375 326.909 11.9897C324.885 10.7081 322.524 10.0673 319.826 10.0673C317.769 10.0673 315.948 10.4383 314.363 11.1802C312.778 11.8885 311.547 12.8834 310.67 14.165C309.793 15.4466 309.354 16.9474 309.354 18.6674C309.354 20.6236 309.961 22.3267 311.176 23.777C312.39 25.1935 314.127 26.2221 316.386 26.8629L321.091 28.1782C322.912 28.6841 323.823 29.4936 323.823 30.6065C323.823 32.2591 322.71 33.0854 320.484 33.0854C319 33.0854 317.651 32.6638 316.437 31.8207C315.223 30.9775 314.262 29.8139 313.553 28.33L307.988 30.9606C308.798 33.3889 310.316 35.3282 312.542 36.7784C314.801 38.1949 317.449 38.9032 320.484 38.9032Z" fill="black"/>
<path d="M335.694 38.2961H343.282V29.8477L346.317 26.5088L353.349 38.2961H361.949L351.983 21.804L362 10.6743H352.641L343.282 20.6404V0H335.694V38.2961Z" fill="black"/>
</svg>
